<?xml version="1.0" standalone="no"?>
<!DOCTYPE svg PUBLIC "-//W3C//DTD SVG 20010904//EN"
 "http://www.w3.org/TR/2001/REC-SVG-20010904/DTD/svg10.dtd">
<svg version="1.0" xmlns="http://www.w3.org/2000/svg"
 width="2234.000000pt" height="528.000000pt" viewBox="0 0 2234.000000 528.000000"
 preserveAspectRatio="xMidYMid meet">
<metadata>
Created by potrace 1.16, written by Peter Selinger 2001-2019
</metadata>
<g transform="translate(0.000000,528.000000) scale(0.100000,-0.100000)"
fill="#000000" stroke="none">
<path d="M2410 5270 c-333 -32 -632 -116 -935 -265 -531 -261 -938 -668 -1200
-1200 -209 -424 -299 -875 -267 -1338 26 -369 106 -667 267 -992 392 -794
1131 -1325 2020 -1452 159 -23 541 -23 700 1 742 108 1375 492 1802 1092 588
826 644 1946 141 2827 -411 718 -1118 1197 -1938 1312 -138 19 -458 27 -590
15z m60 -633 c0 -53 -23 -145 -50 -196 -11 -22 -76 -99 -145 -171 -72 -75
-136 -153 -151 -181 -27 -54 -59 -167 -50 -177 3 -3 39 26 79 65 39 38 98 85
129 103 56 34 57 35 52 71 -10 58 12 60 49 6 11 -17 18 -16 133 7 193 40 177
32 170 81 -4 32 -1 46 10 56 21 17 34 1 41 -49 5 -39 6 -40 34 -30 28 10 29
12 29 76 0 69 19 124 61 183 22 32 115 99 136 99 29 0 10 -40 -38 -80 -29 -25
-59 -61 -69 -84 -23 -53 -34 -122 -22 -130 6 -3 45 32 88 79 72 79 114 105
114 71 0 -25 -97 -160 -152 -213 -37 -34 -74 -58 -115 -73 -59 -21 -62 -24
-78 -73 -9 -29 -25 -64 -36 -78 -41 -58 -145 -77 -219 -39 l-40 20 0 -28 c0
-15 -12 -52 -26 -80 -44 -89 -140 -129 -236 -99 -49 15 -61 10 -31 -14 9 -8
52 -16 105 -19 65 -4 93 -11 105 -23 26 -26 7 -50 -83 -103 -16 -10 -15 -15
21 -79 21 -38 79 -123 130 -190 50 -66 108 -145 128 -177 78 -117 172 -178
315 -204 96 -17 523 -19 672 -3 91 10 114 9 170 -5 143 -37 247 -143 286 -291
27 -100 10 -297 -34 -397 l-19 -43 -6 75 c-4 41 -11 104 -14 140 l-8 65 -6
-85 c-4 -47 -7 -122 -8 -167 -1 -89 3 -101 103 -336 25 -59 46 -118 46 -131 0
-26 -63 -120 -259 -386 -79 -107 -155 -210 -168 -228 -13 -17 -31 -32 -39 -32
-65 0 70 -40 391 -114 l60 -14 -71 -1 c-38 -1 -133 8 -210 18 -970 135 -1643
61 -2043 -226 l-24 -17 7 39 c20 109 117 237 222 292 30 15 54 30 54 33 0 3
-56 25 -124 49 -69 24 -129 47 -135 50 -6 4 11 72 45 179 30 95 54 180 54 188
0 8 -52 140 -116 292 -65 152 -123 291 -130 309 l-14 32 -122 -60 -122 -60
-43 83 c-23 46 -42 86 -42 89 -1 3 15 13 36 23 38 18 53 11 53 -26 0 -22 38
-48 70 -48 38 0 74 41 68 77 -3 15 -8 35 -12 44 -5 11 -1 18 12 21 11 3 28 18
38 33 21 33 11 69 -27 97 -21 16 -30 17 -54 8 -16 -6 -33 -16 -37 -23 -4 -7
-11 -2 -17 15 -19 50 -79 63 -118 26 -31 -29 -30 -72 2 -103 l24 -25 -40 -21
c-23 -11 -42 -19 -44 -17 -18 21 -85 188 -85 212 0 48 34 92 107 140 153 98
336 174 443 183 l66 6 113 -78 c95 -65 113 -74 107 -54 -22 73 -18 164 13 288
20 83 31 150 31 198 0 71 -1 73 -27 79 -299 74 -358 93 -385 123 -18 20 -28
43 -28 62 0 35 -5 32 195 103 169 61 276 108 282 124 10 25 -12 32 -59 17 -79
-23 -154 11 -195 90 -32 61 -12 260 26 253 14 -3 15 -17 12 -94 -3 -77 0 -97
18 -132 16 -32 29 -43 58 -51 20 -6 39 -9 41 -6 2 2 -6 18 -19 36 -45 64 -34
179 28 287 23 41 47 54 55 30 3 -7 -7 -38 -21 -68 -20 -42 -26 -71 -26 -121 0
-70 15 -102 55 -112 16 -4 21 4 31 52 6 31 21 81 33 111 21 50 21 58 8 90 -8
21 -12 53 -9 78 5 49 55 135 80 140 28 6 30 -23 3 -63 -19 -27 -26 -51 -26
-85 l0 -47 83 84 83 85 -23 46 c-27 53 -29 107 -7 160 15 36 60 92 75 92 19 0
16 -35 -6 -68 -28 -41 -33 -115 -12 -166 l13 -29 36 44 c48 59 65 96 84 176
14 62 26 82 47 83 4 0 7 -19 7 -43z"/>
<path d="M2309 4002 c-45 -30 -139 -124 -139 -140 0 -5 10 -12 23 -16 64 -17
127 5 152 55 19 36 32 129 18 129 -5 0 -29 -13 -54 -28z"/>
<path d="M2008 2854 c-5 -4 -8 -53 -8 -108 0 -159 33 -250 124 -345 l51 -53
-49 6 c-85 11 -114 32 -233 176 -153 185 -233 260 -276 259 -37 0 -152 -40
-151 -52 1 -4 104 -251 230 -548 l229 -539 133 -77 c74 -42 136 -81 138 -88 3
-6 -17 -72 -45 -146 -27 -74 -46 -135 -42 -136 3 -2 29 3 56 10 l50 13 7 60
c24 219 41 513 42 719 1 269 8 241 -86 381 -84 125 -140 273 -156 415 -4 33
-10 57 -14 53z"/>
<path d="M3246 2590 c8 -77 40 -192 71 -258 25 -53 109 -147 162 -182 21 -14
22 -16 7 -52 -9 -21 -16 -52 -16 -70 0 -34 44 -138 80 -188 l21 -29 -59 -68
c-111 -127 -417 -417 -497 -469 -14 -9 -41 -22 -61 -29 l-36 -12 73 -7 c41 -4
155 -21 254 -38 99 -17 185 -31 192 -32 13 -1 158 179 255 319 86 124 128 204
128 247 0 62 -131 253 -288 420 -133 141 -205 256 -264 423 l-28 80 6 -55z"/>
<path d="M2890 2183 c-47 -8 -149 -15 -227 -16 l-143 -1 -14 -45 c-23 -68
-186 -835 -186 -870 0 -4 117 -5 261 -5 305 2 249 -19 454 173 159 149 267
268 297 325 l20 40 -37 113 c-58 176 -126 266 -220 292 -51 14 -99 12 -205 -6z"/>
<path d="M1879 1461 c-40 -40 -41 -106 -3 -145 61 -60 164 -14 164 74 0 56
-42 100 -95 100 -27 0 -44 -8 -66 -29z"/>
<path d="M14574 4950 c-64 -13 -108 -35 -154 -77 -57 -51 -84 -111 -83 -190 1
-146 82 -217 313 -273 176 -43 215 -70 215 -150 0 -40 -5 -54 -30 -80 -81 -84
-280 -62 -413 47 l-44 36 -24 -29 c-13 -16 -33 -41 -44 -55 l-20 -27 53 -40
c107 -82 207 -115 342 -115 201 1 325 105 325 272 -1 150 -78 219 -309 276
-171 42 -220 76 -221 151 0 81 62 124 177 124 76 -1 155 -27 217 -75 41 -31
33 -36 93 48 l27 39 -24 19 c-50 39 -166 89 -230 99 -74 11 -108 11 -166 0z"/>
<path d="M20359 4942 c-212 -56 -349 -240 -349 -472 0 -146 45 -254 145 -349
205 -194 545 -165 711 61 60 82 85 155 91 264 7 110 -7 174 -54 266 -100 192
-325 287 -544 230z m241 -141 c73 -28 131 -80 171 -153 33 -61 34 -67 34 -173
0 -97 -3 -116 -25 -160 -98 -200 -367 -250 -520 -96 -184 185 -120 502 119
587 55 20 162 17 221 -5z"/>
<path d="M6402 4608 c3 -287 6 -339 21 -378 40 -103 124 -183 226 -216 82 -27
227 -24 303 5 80 31 158 104 192 180 37 83 45 168 46 474 l0 267 -74 0 -75 0
-3 -322 c-3 -310 -4 -325 -25 -364 -49 -91 -127 -130 -246 -121 -95 6 -151 42
-192 122 l-30 59 -3 313 -3 313 -70 0 -70 0 3 -332z"/>
<path d="M7860 4475 l0 -465 70 0 70 0 2 340 3 340 268 -340 268 -340 59 0 60
0 0 465 0 465 -75 0 -76 0 3 -330 c2 -182 1 -330 -2 -330 -3 0 -122 149 -264
330 l-259 330 -64 0 -63 0 0 -465z"/>
<path d="M9390 4475 l0 -465 70 0 70 0 0 465 0 465 -70 0 -70 0 0 -465z"/>
<path d="M10149 4918 c5 -13 95 -223 199 -468 l190 -445 62 0 61 0 190 445
c105 245 195 455 200 468 8 22 7 22 -69 22 l-78 0 -149 -360 c-82 -198 -151
-360 -154 -360 -3 0 -72 161 -153 358 l-147 357 -80 3 c-81 3 -81 3 -72 -20z"/>
<path d="M11630 4475 l0 -465 345 0 345 0 0 65 0 65 -275 0 -275 0 0 135 0
135 245 0 245 0 0 70 0 70 -245 0 -245 0 0 130 0 130 275 0 275 0 0 65 0 65
-345 0 -345 0 0 -465z"/>
<path d="M12960 4476 l0 -466 70 0 70 0 0 170 0 170 115 0 115 0 126 -170 126
-170 90 0 c71 0 88 3 81 13 -70 88 -263 346 -263 350 0 2 29 19 65 36 75 37
120 86 140 155 29 96 11 200 -45 268 -18 21 -59 51 -98 70 l-66 33 -263 3
-263 3 0 -465z m517 311 c69 -37 100 -99 83 -170 -10 -48 -42 -84 -95 -108
-34 -16 -66 -19 -202 -19 l-163 0 0 161 0 161 173 -4 c139 -3 178 -7 204 -21z"/>
<path d="M15660 4475 l0 -465 70 0 70 0 0 465 0 465 -70 0 -70 0 0 -465z"/>
<path d="M16430 4875 l0 -65 150 0 150 0 0 -400 0 -400 75 0 75 0 0 400 0 400
150 0 150 0 0 65 0 65 -375 0 -375 0 0 -65z"/>
<path d="M17732 4878 c25 -35 113 -163 196 -284 l152 -222 0 -181 0 -181 70 0
70 0 0 180 0 181 188 272 c103 150 191 278 196 285 5 9 -12 12 -77 12 l-84 0
-143 -210 c-79 -115 -147 -207 -151 -204 -5 3 -70 97 -146 210 l-137 204 -89
0 -89 0 44 -62z"/>
<path d="M21610 4475 l0 -465 70 0 70 0 0 195 0 195 245 0 245 0 0 65 0 65
-245 0 -245 0 0 140 0 140 270 0 270 0 0 65 0 65 -340 0 -340 0 0 -465z"/>
<path d="M7215 3245 c-125 -20 -202 -43 -305 -91 -226 -107 -384 -288 -450
-514 -31 -106 -39 -343 -16 -461 21 -101 87 -244 147 -312 61 -71 161 -142
274 -197 126 -61 229 -97 463 -161 340 -93 470 -147 541 -224 94 -102 75 -269
-41 -354 -73 -54 -163 -76 -313 -76 -268 1 -486 81 -745 276 l-87 66 -139
-235 c-77 -129 -143 -243 -148 -254 -11 -22 -13 -20 133 -119 391 -265 908
-363 1338 -254 287 73 489 231 597 467 59 129 71 192 71 388 0 156 -3 183 -23
250 -48 152 -124 262 -245 353 -150 113 -299 176 -652 276 -468 133 -556 186
-572 343 -8 80 11 135 66 189 170 169 568 117 934 -123 46 -30 81 -47 87 -42
8 9 290 483 290 489 0 6 -169 115 -230 148 -276 149 -675 220 -975 172z"/>
<path d="M8883 2273 c4 -1020 2 -984 63 -1198 53 -190 176 -394 301 -503 156
-134 333 -215 564 -258 133 -25 437 -25 574 0 559 101 877 470 935 1081 6 66
10 454 10 963 l0 852 -310 0 -310 0 0 -882 c0 -837 -1 -888 -20 -978 -50 -243
-191 -400 -410 -456 -88 -23 -263 -23 -350 0 -205 55 -338 195 -403 425 -21
75 -22 89 -25 984 l-3 907 -310 0 -310 0 4 -937z"/>
<path d="M11760 1775 l0 -1435 305 0 305 0 2 458 3 457 244 0 244 0 300 -457
299 -458 360 0 360 0 -18 27 c-9 16 -163 246 -340 511 l-322 484 97 49 c317
159 483 424 498 794 12 276 -52 497 -193 670 -133 163 -353 279 -607 320 -75
12 -223 15 -814 15 l-723 0 0 -1435z m1405 850 c92 -24 158 -60 209 -115 58
-62 82 -114 96 -208 28 -181 -51 -351 -197 -426 -104 -52 -141 -56 -537 -56
l-366 0 0 410 0 410 368 0 c298 0 379 -3 427 -15z"/>
<path d="M14580 1775 l0 -1435 305 0 305 0 2 458 3 457 244 0 244 0 294 -450
c162 -247 298 -453 302 -458 4 -4 168 -6 364 -5 l357 3 -339 509 -340 509 97
48 c192 95 316 217 403 394 64 133 89 236 96 406 22 538 -265 892 -796 983
-81 14 -199 16 -818 16 l-723 0 0 -1435z m1405 850 c91 -24 140 -49 195 -101
62 -58 97 -130 110 -227 26 -183 -52 -347 -199 -421 -99 -51 -146 -56 -538
-56 l-363 0 0 410 0 410 368 0 c299 0 379 -3 427 -15z"/>
<path d="M17370 1775 l0 -1435 990 0 990 0 0 280 0 280 -680 0 -680 0 0 290 0
290 570 0 570 0 0 295 0 295 -570 0 -570 0 0 290 0 290 680 0 680 0 0 280 0
280 -990 0 -990 0 0 -1435z"/>
<path d="M19570 3206 c0 -2 241 -393 535 -867 l535 -864 0 -567 0 -568 310 0
310 0 0 573 0 572 535 858 c294 471 535 859 535 862 0 3 -157 5 -348 5 l-348
0 -332 -562 c-183 -310 -336 -569 -340 -575 -5 -8 -129 195 -342 562 l-333
575 -358 0 c-198 0 -359 -2 -359 -4z"/>
</g>
</svg>
