<?xml version="1.0" standalone="no"?>
<!DOCTYPE svg PUBLIC "-//W3C//DTD SVG 20010904//EN"
 "http://www.w3.org/TR/2001/REC-SVG-20010904/DTD/svg10.dtd">
<svg version="1.0" xmlns="http://www.w3.org/2000/svg"
 width="528.000000pt" height="528.000000pt" viewBox="0 0 528.000000 528.000000"
 preserveAspectRatio="xMidYMid meet">

<g transform="translate(0.000000,528.000000) scale(0.100000,-0.100000)"
fill="#b5e383" stroke="none">
<path d="M2410 5270 c-333 -32 -632 -116 -935 -265 -531 -261 -938 -668 -1200
-1200 -209 -424 -299 -875 -267 -1338 26 -369 106 -667 267 -992 392 -794
1131 -1325 2020 -1452 159 -23 541 -23 700 1 742 108 1375 492 1802 1092 588
826 644 1946 141 2827 -411 718 -1118 1197 -1938 1312 -138 19 -458 27 -590
15z m60 -633 c0 -53 -23 -145 -50 -196 -11 -22 -76 -99 -145 -171 -72 -75
-136 -153 -151 -181 -27 -54 -59 -167 -50 -177 3 -3 39 26 79 65 39 38 98 85
129 103 56 34 57 35 52 71 -10 58 12 60 49 6 11 -17 18 -16 133 7 193 40 177
32 170 81 -4 32 -1 46 10 56 21 17 34 1 41 -49 5 -39 6 -40 34 -30 28 10 29
12 29 76 0 69 19 124 61 183 22 32 115 99 136 99 29 0 10 -40 -38 -80 -29 -25
-59 -61 -69 -84 -23 -53 -34 -122 -22 -130 6 -3 45 32 88 79 72 79 114 105
114 71 0 -25 -97 -160 -152 -213 -37 -34 -74 -58 -115 -73 -59 -21 -62 -24
-78 -73 -9 -29 -25 -64 -36 -78 -41 -58 -145 -77 -219 -39 l-40 20 0 -28 c0
-15 -12 -52 -26 -80 -44 -89 -140 -129 -236 -99 -49 15 -61 10 -31 -14 9 -8
52 -16 105 -19 65 -4 93 -11 105 -23 26 -26 7 -50 -83 -103 -16 -10 -15 -15
21 -79 21 -38 79 -123 130 -190 50 -66 108 -145 128 -177 78 -117 172 -178
315 -204 96 -17 523 -19 672 -3 91 10 114 9 170 -5 143 -37 247 -143 286 -291
27 -100 10 -297 -34 -397 l-19 -43 -6 75 c-4 41 -11 104 -14 140 l-8 65 -6
-85 c-4 -47 -7 -122 -8 -167 -1 -89 3 -101 103 -336 25 -59 46 -118 46 -131 0
-26 -63 -120 -259 -386 -79 -107 -155 -210 -168 -228 -13 -17 -31 -32 -39 -32
-65 0 70 -40 391 -114 l60 -14 -71 -1 c-38 -1 -133 8 -210 18 -970 135 -1643
61 -2043 -226 l-24 -17 7 39 c20 109 117 237 222 292 30 15 54 30 54 33 0 3
-56 25 -124 49 -69 24 -129 47 -135 50 -6 4 11 72 45 179 30 95 54 180 54 188
0 8 -52 140 -116 292 -65 152 -123 291 -130 309 l-14 32 -122 -60 -122 -60
-43 83 c-23 46 -42 86 -42 89 -1 3 15 13 36 23 38 18 53 11 53 -26 0 -22 38
-48 70 -48 38 0 74 41 68 77 -3 15 -8 35 -12 44 -5 11 -1 18 12 21 11 3 28 18
38 33 21 33 11 69 -27 97 -21 16 -30 17 -54 8 -16 -6 -33 -16 -37 -23 -4 -7
-11 -2 -17 15 -19 50 -79 63 -118 26 -31 -29 -30 -72 2 -103 l24 -25 -40 -21
c-23 -11 -42 -19 -44 -17 -18 21 -85 188 -85 212 0 48 34 92 107 140 153 98
336 174 443 183 l66 6 113 -78 c95 -65 113 -74 107 -54 -22 73 -18 164 13 288
20 83 31 150 31 198 0 71 -1 73 -27 79 -299 74 -358 93 -385 123 -18 20 -28
43 -28 62 0 35 -5 32 195 103 169 61 276 108 282 124 10 25 -12 32 -59 17 -79
-23 -154 11 -195 90 -32 61 -12 260 26 253 14 -3 15 -17 12 -94 -3 -77 0 -97
18 -132 16 -32 29 -43 58 -51 20 -6 39 -9 41 -6 2 2 -6 18 -19 36 -45 64 -34
179 28 287 23 41 47 54 55 30 3 -7 -7 -38 -21 -68 -20 -42 -26 -71 -26 -121 0
-70 15 -102 55 -112 16 -4 21 4 31 52 6 31 21 81 33 111 21 50 21 58 8 90 -8
21 -12 53 -9 78 5 49 55 135 80 140 28 6 30 -23 3 -63 -19 -27 -26 -51 -26
-85 l0 -47 83 84 83 85 -23 46 c-27 53 -29 107 -7 160 15 36 60 92 75 92 19 0
16 -35 -6 -68 -28 -41 -33 -115 -12 -166 l13 -29 36 44 c48 59 65 96 84 176
14 62 26 82 47 83 4 0 7 -19 7 -43z"/>
<path d="M2548 4088 c-49 -12 -88 -24 -88 -28 0 -12 77 -50 101 -50 34 1 67
21 90 56 34 52 29 53 -103 22z"/>
<path d="M2309 4002 c-45 -30 -139 -124 -139 -140 0 -5 10 -12 23 -16 64 -17
127 5 152 55 19 36 32 129 18 129 -5 0 -29 -13 -54 -28z"/>
<path d="M2008 2854 c-5 -4 -8 -53 -8 -108 0 -159 33 -250 124 -345 l51 -53
-49 6 c-85 11 -114 32 -233 176 -153 185 -233 260 -276 259 -37 0 -152 -40
-151 -52 1 -4 104 -251 230 -548 l229 -539 133 -77 c74 -42 136 -81 138 -88 3
-6 -17 -72 -45 -146 -27 -74 -46 -135 -42 -136 3 -2 29 3 56 10 l50 13 7 60
c24 219 41 513 42 719 1 269 8 241 -86 381 -84 125 -140 273 -156 415 -4 33
-10 57 -14 53z"/>
<path d="M3246 2590 c8 -77 40 -192 71 -258 25 -53 109 -147 162 -182 21 -14
22 -16 7 -52 -9 -21 -16 -52 -16 -70 0 -34 44 -138 80 -188 l21 -29 -59 -68
c-111 -127 -417 -417 -497 -469 -14 -9 -41 -22 -61 -29 l-36 -12 73 -7 c41 -4
155 -21 254 -38 99 -17 185 -31 192 -32 13 -1 158 179 255 319 86 124 128 204
128 247 0 62 -131 253 -288 420 -133 141 -205 256 -264 423 l-28 80 6 -55z"/>
<path d="M2890 2183 c-47 -8 -149 -15 -227 -16 l-143 -1 -14 -45 c-23 -68
-186 -835 -186 -870 0 -4 117 -5 261 -5 305 2 249 -19 454 173 159 149 267
268 297 325 l20 40 -37 113 c-58 176 -126 266 -220 292 -51 14 -99 12 -205 -6z"/>
<path d="M1879 1461 c-40 -40 -41 -106 -3 -145 61 -60 164 -14 164 74 0 56
-42 100 -95 100 -27 0 -44 -8 -66 -29z"/>
</g>
</svg>
